<?xml version="1.0" encoding="UTF-8" standalone="no"?>
<!-- Generator: Adobe Illustrator 16.0.0, SVG Export Plug-In . SVG Version: 6.00 Build 0)  -->

<svg
   xmlns:dc="http://purl.org/dc/elements/1.1/"
   xmlns:cc="http://creativecommons.org/ns#"
   xmlns:rdf="http://www.w3.org/1999/02/22-rdf-syntax-ns#"
   xmlns:svg="http://www.w3.org/2000/svg"
   xmlns="http://www.w3.org/2000/svg"
   xmlns:sodipodi="http://sodipodi.sourceforge.net/DTD/sodipodi-0.dtd"
   xmlns:inkscape="http://www.inkscape.org/namespaces/inkscape"
   version="1.1"
   id="Layer_1"
   x="0px"
   y="0px"
   width="574"
   height="574"
   viewBox="0 0 573.99997 573.99999"
   enable-background="new 0 0 595.28 841.89"
   xml:space="preserve"
   inkscape:version="0.92.3 (2405546, 2018-03-11)"
   sodipodi:docname="logo.svg"
   inkscape:export-filename="/home/jc/Nextcloud-piC/piC/JLSw/inkVerb/inkisaverb.com/favicon-regular.ico"
   inkscape:export-xdpi="5.8430295"
   inkscape:export-ydpi="5.8430295"><metadata
     id="metadata27"><rdf:RDF><cc:Work
         rdf:about=""><dc:format>image/svg+xml</dc:format><dc:type
           rdf:resource="http://purl.org/dc/dcmitype/StillImage" /><dc:title></dc:title></cc:Work></rdf:RDF></metadata><defs
     id="defs25" /><sodipodi:namedview
     pagecolor="#ffffff"
     bordercolor="#666666"
     borderopacity="1"
     objecttolerance="10"
     gridtolerance="10"
     guidetolerance="10"
     inkscape:pageopacity="0"
     inkscape:pageshadow="2"
     inkscape:window-width="1549"
     inkscape:window-height="816"
     id="namedview23"
     showgrid="false"
     inkscape:zoom="0.84806614"
     inkscape:cx="232.1293"
     inkscape:cy="290.93409"
     inkscape:window-x="260"
     inkscape:window-y="214"
     inkscape:window-maximized="0"
     inkscape:current-layer="g4206"
     fit-margin-top="0"
     fit-margin-left="0"
     fit-margin-right="0"
     fit-margin-bottom="0"
     borderlayer="true"
     showguides="true"
     inkscape:guide-bbox="true"
     inkscape:snap-bbox="true"
     inkscape:bbox-paths="true"
     inkscape:bbox-nodes="true"
     inkscape:snap-bbox-edge-midpoints="true"
     inkscape:snap-bbox-midpoints="true"
     inkscape:object-paths="true"
     inkscape:snap-intersection-paths="true"
     inkscape:object-nodes="true"
     inkscape:snap-smooth-nodes="true" /><g
     inkscape:groupmode="layer"
     id="g4206"
     inkscape:label="Two-color BW Simpler"
     style="display:inline"
     transform="translate(-135.73454,-37.560108)"><path
       style="fill:#ffffff;fill-opacity:1;stroke:none;stroke-width:0.46573204;stroke-miterlimit:4;stroke-dasharray:none"
       d="m 495.59958,82.274569 c -1.30984,-0.01396 -2.61552,0.0023 -3.91824,0.04094 -2.43138,0.07208 -4.8555,0.230489 -7.2657,0.493475 -2.28668,0.249509 -4.55743,0.595652 -6.81542,1.025612 -7.50253,1.428397 -14.84767,3.870388 -21.92215,7.504471 -1.15033,0.590865 -2.29119,1.210526 -3.42705,1.864748 -1.13695,0.654859 -2.26308,1.343371 -3.38383,2.062592 -2.92792,1.879222 -5.68703,3.904462 -8.23218,6.099083 -0.81823,0.70554 -1.62416,1.42484 -2.39916,2.17175 -0.5281,0.50898 -1.04423,1.02574 -1.54865,1.5532 -1.00901,1.05508 -1.96745,2.14785 -2.87216,3.27923 -0.45229,0.5656 -0.89016,1.14038 -1.31442,1.72603 -0.14178,0.19568 -0.2649,0.3859 -0.38659,0.55942 -0.28087,0.40053 -0.56879,0.80595 -0.84369,1.22801 l -0.0364,0.0592 v 0.002 l -0.0365,0.0568 v 0.002 c -0.36727,0.56731 -0.7275,1.14471 -1.06882,1.73285 l -0.0296,0.0523 v 0.002 0.002 l -0.0296,0.0477 v 0.007 c -0.34125,0.59192 -0.66924,1.18877 -0.98241,1.80107 -0.33246,0.64989 -0.65117,1.30992 -0.95056,1.983 -0.28527,0.64145 -0.55183,1.29444 -0.80503,1.95571 l -0.007,0.007 -0.0159,0.0455 -0.0182,0.0477 c -0.25058,0.65942 -0.4828,1.32885 -0.70041,2.00801 l -0.005,0.005 -0.0116,0.0432 -0.002,0.005 v 0.002 0.002 h -0.002 l -0.0182,0.0546 c -0.27558,0.86737 -0.5156,1.73583 -0.75727,2.59929 v 0.002 l -0.002,0.007 c -0.095,0.33908 -0.2088,0.69 -0.307,1.062 l -0.007,0.0296 v 0.005 l -0.009,0.025 v 0.005 c -0.31917,1.21282 -0.60802,2.4325 -0.86415,3.66127 l -0.005,0.0205 v 0.007 0.002 l -0.005,0.0205 v 0.005 c -0.0376,0.19064 -0.0625,0.36968 -0.0933,0.52304 -0.46167,2.31123 -0.82342,4.64911 -1.03926,7.01781 -0.0584,0.64049 -0.10654,1.2819 -0.14554,1.92616 v 0.007 0.0136 0.0117 c -0.0382,0.63442 -0.0677,1.26989 -0.0864,1.90795 -0.0193,0.64852 -0.0285,1.29654 -0.0272,1.94889 0.002,1.30244 0.0463,2.61376 0.13417,3.92962 0.0879,1.31718 0.21577,2.64191 0.39341,3.97282 0.0887,0.66486 0.19051,1.33077 0.30246,1.99891 0.14303,0.85286 0.30351,1.69905 0.47528,2.53561 0.34418,1.6762 0.74193,3.32082 1.19389,4.94385 0.45177,1.62227 0.95494,3.22136 1.50318,4.80059 0.54807,1.57875 1.14275,3.13852 1.77605,4.68461 0.31709,0.77409 0.64374,1.5425 0.98012,2.31046 2.68877,6.13843 5.96989,12.10363 9.49657,18.23587 l 0.30473,0.52759 0.44345,-0.44573 0.0182,-0.0159 0.005,-0.009 c 5.22406,-5.6189 9.86258,-10.61258 13.64904,-14.68603 v -0.002 l 0.19558,-0.19329 -0.0819,-0.26835 c -0.59499,-1.91022 -1.19278,-3.72766 -1.77151,-5.47826 l -0.0116,-0.0365 c -1.15916,-3.50598 -2.25641,-6.74077 -3.17689,-9.91727 l -0.002,-0.0117 c -10e-4,-0.007 -8.9e-4,-0.003 -0.002,-0.009 v -0.002 l -0.009,-0.0296 c -0.46165,-1.59586 -0.87668,-3.17488 -1.23481,-4.76648 -0.75223,-3.34074 -1.35666,-6.70967 -1.70784,-10.06964 v -0.002 c -0.13978,-1.33779 -0.24267,-2.67231 -0.29564,-4.00692 v -0.009 -0.007 -0.005 c -0.0263,-0.66991 -0.0409,-1.33893 -0.0432,-2.00802 v -0.002 c -0.002,-0.66821 0.009,-1.33614 0.0341,-2.00347 v -0.005 -0.005 -0.0117 c 9.7e-4,-0.0122 0.005,-0.0402 0.007,-0.0864 v -0.005 -0.009 c 0.0476,-1.23347 0.14583,-2.46412 0.29108,-3.69085 v -0.002 -0.0117 c 0.009,-0.0734 0.0141,-0.13551 0.0182,-0.1751 v -0.002 c 0.0813,-0.66208 0.17656,-1.32163 0.28881,-1.98072 l 0.002,-0.0136 v -0.005 -0.005 c 0.11166,-0.65357 0.24041,-1.30443 0.38432,-1.95571 0.39674,-1.79544 0.9323,-3.57935 1.59869,-5.35092 0.0717,-0.19047 0.12441,-0.36627 0.1842,-0.51848 l 0.002,-0.005 v -0.005 c 0.002,-0.006 0.002,-0.005 0.002,-0.005 l 0.009,-0.0182 0.002,-0.009 v -0.002 c 0.0721,-0.18035 0.15533,-0.362 0.23651,-0.55943 0.11954,-0.29085 0.23391,-0.57951 0.35247,-0.85051 0.20732,-0.47394 0.41879,-0.93526 0.63902,-1.38946 0.22097,-0.4557 0.44662,-0.90368 0.67996,-1.33944 0.23276,-0.4347 0.47267,-0.85836 0.7186,-1.27575 l 0.002,-0.005 c -7.8e-4,0.001 0.007,-0.0123 0.0136,-0.0227 l 0.009,-0.0117 0.002,-0.002 0.007,-0.0136 c 0.13892,-0.23276 0.28853,-0.46417 0.4389,-0.70497 0.10374,-0.16613 0.19707,-0.32664 0.28881,-0.46846 0.25846,-0.39953 0.52321,-0.7895 0.79365,-1.17116 0.54163,-0.76448 1.10338,-1.49177 1.69193,-2.18766 0.29066,-0.34374 0.58557,-0.68031 0.88688,-1.00742 l 0.002,-0.002 0.005,-0.002 0.0182,-0.0205 0.007,-0.005 0.005,-0.0116 c 0.29702,-0.32136 0.59963,-0.63292 0.90736,-0.9392 0.57573,-0.57298 1.17587,-1.11478 1.79198,-1.63961 0.0801,-0.0682 0.1416,-0.13034 0.17056,-0.15463 l 0.007,-0.005 v -0.002 l 0.005,-0.002 c 1.0778,-0.9038 2.22593,-1.71295 3.41568,-2.47193 2.51392,-1.60373 5.23498,-2.89664 8.15031,-3.89323 4.29882,-1.46953 8.99702,-2.33703 13.94922,-2.758452 0.76441,-0.06506 1.52425,-0.115187 2.28773,-0.154638 0.0849,-0.0044 0.16367,-0.01036 0.23195,-0.01365 1.59899,-0.07728 3.19177,-0.101274 4.77784,-0.07277 0.80649,0.01448 1.61195,0.0419 2.41508,0.08186 1.60651,0.07995 3.20716,0.212139 4.80286,0.3866 3.19113,0.34888 6.3602,0.8749 9.51249,1.54183 l 0.0205,0.005 h 0.002 0.002 c 4.72002,0.99972 9.40062,2.31411 14.05382,3.80226 1.85091,0.59202 3.68348,1.21034 5.49874,1.8602 l 0.0364,0.0136 h 0.002 c 7.24793,2.59678 14.21837,5.65168 20.93065,9.1168 6.72423,3.47127 13.18748,7.356 19.41611,11.60919 l 0.0591,0.0387 h 0.002 v 0.002 c 1.53644,1.05002 3.06065,2.12355 4.56863,3.21782 l 0.0614,0.0432 h 0.002 c 1.50658,1.09421 2.99883,2.2104 4.47766,3.34745 l 0.0591,0.0455 0.002,0.002 c 7.47293,5.75027 14.59194,12.04102 21.39912,18.77937 3.84121,3.80199 7.56046,7.77414 11.12935,11.8889 2.36167,2.72288 4.65664,5.50753 6.88138,8.34361 h 0.002 l 0.0477,0.0637 c 2.22486,2.83841 4.37803,5.72946 6.45156,8.66199 l 0.002,0.002 c 0.0171,0.024 0.0312,0.0433 0.0409,0.0568 v 0.002 c 1.04327,1.47657 2.06525,2.96453 3.06774,4.46175 4.56596,6.81864 8.81981,13.79468 12.21182,21.06938 0.56579,1.21347 1.11076,2.43577 1.62596,3.66581 0.50986,1.21734 0.99048,2.44115 1.44632,3.6772 v 0.002 0.002 c 0.005,0.0118 0.009,0.0199 0.0117,0.0273 v 0.002 l 0.002,0.005 c 0.45946,1.24754 0.89041,2.50595 1.28941,3.7727 0.39944,1.268 0.7665,2.54676 1.10065,3.83639 0.5007,1.93229 0.92483,3.8864 1.26439,5.8694 0.11341,0.66244 0.21976,1.32678 0.31382,1.99437 0.0935,0.66375 0.17623,1.32938 0.25016,1.99892 v 0.002 0.002 c -6.4e-4,-0.004 -0.003,-0.024 0,0.007 v 0.005 c 0.0735,0.667 0.13984,1.33751 0.19329,2.01029 v 0.0116 c -0.002,-0.0329 -0.002,-0.0303 0,0.007 v 0.002 c 0.1077,1.35904 0.17565,2.73319 0.19784,4.11837 v 0.002 c 0.0117,0.69207 0.0117,1.38395 0,2.08306 v 0.005 0.005 0.005 c -0.0116,0.69657 -0.0343,1.39811 -0.0682,2.10125 v 0.007 0.0116 0.007 c -0.034,0.69862 -0.0815,1.40185 -0.13871,2.10806 v 0.009 c -0.0575,0.7112 -0.12759,1.42324 -0.20922,2.14218 v 0.007 l -0.002,0.007 c -0.008,0.0657 -0.0167,0.13186 -0.025,0.20467 l -0.005,0.0318 c -0.19439,1.64082 -0.46459,3.23265 -0.81639,4.77558 -0.027,0.11808 -0.0446,0.224 -0.0637,0.30472 -0.13494,0.57167 -0.28025,1.13614 -0.4389,1.69419 h -0.002 c -0.15815,0.55648 -0.32885,1.10569 -0.51166,1.64872 -0.30983,0.9204 -0.66494,1.81844 -1.05062,2.70161 -0.0741,0.16963 -0.13356,0.33014 -0.19558,0.46618 l -0.0205,0.0432 v 0.002 c -0.22757,0.49698 -0.4682,0.9865 -0.72088,1.46906 l -0.025,0.0501 c -0.0808,0.14982 -0.17567,0.30701 -0.27062,0.47985 -0.44548,0.81075 -0.91706,1.60217 -1.43494,2.36504 -0.3176,0.46783 -0.64848,0.92788 -0.99605,1.38036 -0.6937,0.90305 -1.44729,1.77609 -2.26498,2.6152 -0.7598,0.77968 -1.58369,1.52786 -2.46056,2.25362 -0.0807,0.0667 -0.14218,0.12578 -0.18875,0.16373 l -0.0136,0.009 -0.009,0.0116 c -0.0881,0.0702 -0.19999,0.14711 -0.31837,0.24105 -0.37634,0.29863 -0.74875,0.59111 -1.13704,0.87325 -4.48154,3.2557 -9.11973,5.50391 -13.88327,6.96324 -1.90532,0.58368 -3.8325,1.04026 -5.77617,1.38492 -1.94381,0.3447 -3.90376,0.57923 -5.88078,0.71178 -1.97722,0.13262 -3.96786,0.16631 -5.97401,0.11376 h -0.005 -0.005 -0.002 -0.007 c -2.00165,-0.0531 -4.01446,-0.19422 -6.03997,-0.4048 -2.02978,-0.21105 -4.07129,-0.4945 -6.11955,-0.83686 -1.02462,-0.17125 -2.05182,-0.35605 -3.07911,-0.55487 -2.41991,-0.46802 -4.4654,-0.55364 -6.21735,0.2547 l -0.0364,0.0182 -0.005,0.002 -0.0341,0.016 -0.0591,0.0614 c -0.64264,0.31695 -1.25098,0.73343 -1.7988,1.31442 l -0.002,0.002 c -0.2801,0.29735 -0.54383,0.63411 -0.79819,1.00287 l -0.0159,0.0182 h -0.002 l -0.005,0.009 h -0.002 l -0.002,0.002 -0.007,0.0136 -0.007,0.007 c -1.39192,2.04597 -2.7383,4.14882 -4.10927,6.32195 -0.32751,0.51915 -0.65255,1.02163 -0.98922,1.56002 -1.72617,2.76016 -3.53116,5.69327 -5.56923,8.92578 l -0.3775,0.60263 0.70497,0.10456 c 6.61184,1.00423 12.83666,2.16071 18.94766,3.08137 1.22173,0.18407 2.43863,0.36334 3.65444,0.52533 2.43074,0.32387 4.85251,0.59441 7.28162,0.79137 1.48128,0.12002 2.96618,0.21945 4.45264,0.30018 l 0.009,0.009 h 0.10688 v -0.002 c 4.47776,0.23975 8.97134,0.27729 13.43756,-0.0159 0.11715,-0.008 0.23971,-0.0143 0.36612,-0.0227 2.21185,-0.1543 4.41873,-0.38987 6.61077,-0.72542 0.90363,-0.13832 1.79985,-0.2963 2.69478,-0.46847 2.08426,-0.40097 4.15792,-0.89504 6.21051,-1.50316 0.73328,-0.21723 1.46573,-0.44729 2.1945,-0.6936 0.82757,-0.2797 1.63745,-0.56907 2.43326,-0.8687 1.59198,-0.59944 3.12311,-1.23986 4.59138,-1.91704 3.67077,-1.69303 6.95914,-3.62289 9.88998,-5.76708 0.58732,-0.42966 1.15872,-0.86827 1.71693,-1.31443 1.0887,-0.87011 2.12171,-1.77407 3.10413,-2.70616 h 0.14554 v -0.0909 l -0.0933,0.0477 0.0205,-0.0205 0.007,-0.005 c 0.50067,-0.47709 0.98466,-0.96097 1.45769,-1.45314 0.47514,-0.49438 0.93475,-0.99378 1.38264,-1.50317 0.44738,-0.5087 0.88025,-1.0255 1.30078,-1.54865 0.84174,-1.04717 1.62803,-2.12173 2.36504,-3.22464 0.14901,-0.22296 0.2825,-0.44286 0.41616,-0.65039 0.57583,-0.89399 1.13078,-1.80273 1.64416,-2.73572 0.31824,-0.5784 0.62314,-1.16035 0.91646,-1.75105 0.29267,-0.58928 0.57307,-1.184 0.84141,-1.78515 l 0.0182,-0.0455 0.002,-0.007 0.0182,-0.0363 v -0.007 c 0.067,-0.15464 0.12811,-0.30537 0.18875,-0.44573 0.44467,-1.02935 0.86419,-2.07679 1.24164,-3.14278 0.22136,-0.6252 0.42951,-1.25396 0.62765,-1.88976 0.19769,-0.63416 0.38426,-1.27212 0.55943,-1.91706 l 0.007,-0.025 v -0.007 l 0.009,-0.0227 v -0.0159 c 0.0391,-0.14968 0.0726,-0.29399 0.10689,-0.42526 0.96042,-3.66864 1.56515,-7.49655 1.84428,-11.44546 v -0.002 -0.007 c 0.004,-0.0341 0.006,-0.0776 0.009,-0.12052 l 0.007,-0.0136 v -0.0477 l 0.007,-0.0909 v -0.005 -0.0116 c 0.0887,-1.3333 0.14214,-2.682 0.15919,-4.04104 5.8e-4,-0.006 0.002,-0.0116 0.002,-0.0159 10e-4,-0.0146 -4e-5,-0.0321 0,-0.0546 v -0.002 c 0.1222,-10.58096 -0.10863,-15.51232 -4.24343,-31.62338 l 0.0159,0.016 -0.20694,-0.81867 c -4.3e-4,-0.001 -0.002,-0.002 -0.002,-0.005 -4.2034,-16.62912 -11.35973,-28.8556 -20.10744,-41.61344 -4.67297,-6.81386 -9.62283,-13.38744 -14.9066,-19.64807 v -0.0136 l -0.0568,-0.0614 v -0.002 l -0.0546,-0.0637 c -1.77585,-2.1006 -3.5868,-4.16394 -5.44188,-6.19005 -3.71025,-4.05227 -7.58701,-7.95023 -11.64557,-11.66831 -1.01403,-0.92898 -2.03905,-1.84738 -3.07684,-2.75392 l -0.0659,-0.0568 -0.0637,-0.0568 h -0.0136 c -3.07121,-2.67718 -6.24105,-5.26007 -9.5284,-7.72505 -10.83118,-8.12284 -22.01039,-16.02864 -34.00435,-22.40882 -1.1e-4,-9e-5 -0.002,-0.003 -0.005,-0.005 -0.001,-8e-4 -0.003,-0.001 -0.005,-0.002 l -0.005,-0.005 -0.0455,-0.0455 h -0.0387 l -0.009,-0.005 -0.025,-0.0117 c -4.06774,-2.46315 -8.39674,-4.578188 -12.82128,-6.41746 l -0.007,-0.0023 -0.0116,-0.0023 -0.005,-0.0023 C 550.9868,96.95741 548.95873,96.072446 546.45397,95.047588 532.49089,89.326244 520.6249,84.697229 507.28517,83.0609 h -0.002 c -0.11224,-0.01404 -0.24079,-0.03562 -0.38205,-0.0523 -2.51728,-0.297268 -5.03278,-0.505724 -7.54086,-0.625372 -1.20739,-0.05766 -2.41464,-0.09019 -3.61806,-0.104604 l -0.005,-0.0045 h -0.13644 z m 70.02582,22.069961 c 0,0 0.0593,0.0688 0.10455,0.12053 l -0.007,0.025 -0.0205,-0.009 c -0.0412,-0.0249 -0.0838,-0.0478 -0.12508,-0.0728 l 0.025,-0.041 z m 0.21375,0.12281 -0.0136,0.0637 c -0.0158,-0.003 -0.0477,-0.0116 -0.0477,-0.0116 -10e-6,-2e-5 0.0336,-0.029 0.0614,-0.0523 z m -66.09847,11.58644 c -0.81433,-0.0116 -1.63032,-0.0119 -2.44918,0.002 -4.36547,0.074 -8.78516,0.51311 -13.25108,1.33943 -11.33687,2.09829 -21.79192,13.65048 -22.47476,25.63802 -0.21027,3.68112 -0.28031,7.43994 0.16146,11.11798 0.40454,3.37184 1.58573,6.5921 2.59929,10.56538 l 0.19557,0.77319 0.57761,-0.55032 c 8.49998,-8.11097 16.21626,-15.66828 24.19168,-22.92957 1.54915,-1.4099 4.10614,-2.51407 6.16959,-2.59018 26.19269,-0.96211 48.70625,8.04517 68.09284,25.43788 2.75898,2.4755 4.82019,4.33131 6.21053,5.88078 1.39042,1.54959 2.09003,2.76808 2.23769,4.0001 0.14767,1.23205 -0.24682,2.56063 -1.23255,4.35715 -0.98562,1.79627 -2.55194,4.0306 -4.64596,7.01327 -56.50707,80.46133 -180.669,259.57284 -180.669,259.57284 l -0.87325,1.25984 12.43241,-4.89155 0.007,-0.002 0.007,-0.002 c 12.59248,-4.0701 27.9994,-6.91807 41.38148,-8.07754 11.88287,-1.02952 19.37092,0.33471 30.06792,-1.86474 4.2784,-0.88078 8.848,-4.5372 11.26125,-8.27767 l 0.0364,-0.0591 v -0.002 c 34.93579,-54.81386 67.2449,-104.82919 99.53471,-155.54641 12.33067,-1.03948 24.68013,2.18594 36.34853,-4.88781 8.70184,-5.27243 13.99011,-12.67946 14.59734,-23.60498 1.24194,-22.3643 -9.40184,-39.91568 -21.67201,-56.69287 -19.13739,-26.16471 -45.07656,-44.04759 -73.62341,-58.18695 -11.21213,-5.55422 -22.99789,-8.61361 -35.21871,-8.7916 z M 379.10062,303.36083 c -4.28649,0.0424 -8.53394,1.12118 -11.60918,3.28833 -3.3958,2.3931 -5.50745,4.80868 -6.44703,7.68412 -0.93954,2.87537 -0.69175,6.15189 0.47301,10.23565 0.2693,0.94476 0.47141,2.14257 0.47983,3.24512 0.008,1.10126 -0.19996,2.10044 -0.61628,2.65384 l -193.7518,250.5834 c -2.22868,2.8739 -3.94806,6.11021 -5.76253,9.20549 -2.32171,3.96259 -2.1439,7.39018 -0.88916,10.4767 1.35489,3.42052 3.93662,6.53333 5.73776,8.76358 3.70519,1.39802 6.85168,2.50547 10.48331,1.51987 0.55722,-0.12616 -0.51724,0.0336 -0.59461,-0.28392 -5.75638,-1.61686 -8.03319,-4.62571 -10.47335,-8.39625 -0.82846,-1.28048 -1.33417,-3.47371 -1.36218,-5.62608 -0.0279,-2.15206 0.43072,-4.27375 1.27804,-5.40776 12.94787,-17.32822 26.82948,-33.96747 40.07388,-51.11683 l 0.0477,-0.0637 v -0.002 c 27.26751,-35.54116 67.44216,-87.518 100.81689,-130.6301 33.3855,-43.12601 59.93947,-77.34532 59.963,-77.37564 0.63027,-0.71723 1.91791,-1.04583 3.44978,-1.23256 1.53312,-0.18687 3.26824,-0.25467 4.75738,-0.70042 5.82001,-1.74312 12.46648,-2.55071 17.46723,-5.94672 3.54637,-2.40831 5.0534,-5.69534 4.66869,-8.96443 -0.38459,-3.26813 -2.61543,-6.47048 -6.3174,-8.85755 -3.25423,-2.09778 -7.58646,-3.09429 -11.87298,-3.05183 z m 221.79352,0.009 c 0.0136,7.2e-4 0.0274,-7.2e-4 0.0409,0 l -0.0501,0.0955 z"
       id="path4208"
       inkscape:connector-curvature="0"
       sodipodi:nodetypes="cssccscsssccccccccccccccccccccccccccccccccccccccccccccccccccsccscssscccccccccccccccccccccccccccccccccccccccccsccccccccccccccccccscccccccccccccccsscccccsccccccccscccccccccccsccccccccccccccccccccccccccccccccccccccccccccccccccccccccccsssccccccssccccccccccccccccccccccccsccccsccccccccsscccsccccccccscccccccccccccccccccccccccccccccccccccccccccssccccccccccccccccccccccccccccccccccccccccccccccccsssccccccsccccccccccccccccccscccccccccscccssccccccccc" /><path
       style="clip-rule:evenodd;fill:#404040;fill-opacity:1;fill-rule:evenodd;stroke-width:1.16433012"
       d="m 500.70826,37.615524 c -15.9706,0.06683 -32.08327,2.156139 -48.34926,6.442474 -3.4534,0.909342 -7.04772,3.281701 -9.41015,5.989933 -10.32411,11.840072 -20.29347,23.995879 -30.20892,36.182922 -2.01893,2.481188 -3.73023,5.435985 -4.76646,8.452764 -7.63568,22.228233 -6.56841,44.554423 0.79365,66.505533 3.91681,11.6794 9.094,22.96514 14.19028,34.20674 2.43694,5.37106 2.66998,9.01611 -2.28774,13.45803 0,0 -120.2557,101.20266 -170.53569,158.10102 -13.22332,14.01737 -19.08046,31.52916 -24.37816,49.47265 -9.42292,31.91312 -16.63441,66.77973 -30.43405,97.28751 -9.57429,21.16869 -15.37349,42.27967 -34.50693,57.95272 -0.1467,0.12109 -0.25423,0.29196 -0.37067,0.448 -9.37169,12.56311 -6.35995,30.4996 6.41974,37.50188 -3.73866,-5.93226 -9.12633,-11.39271 -4.59593,-19.12503 1.82102,-3.10643 3.53477,-6.3238 5.7307,-9.15545 L 361.75501,330.74927 c 1.05023,-1.39604 0.77043,-4.33943 0.20922,-6.30831 -2.30304,-8.07463 -0.90291,-12.68901 5.79664,-17.41037 5.93809,-4.1846 16.66,-4.29091 22.96368,-0.2274 7.22816,4.66081 8.50694,12.37761 1.63507,17.04424 -4.86923,3.3067 -11.46128,4.1283 -17.33533,5.8876 -2.80836,0.84065 -6.86411,0.29264 -8.42548,2.06941 0,0 -106.30446,137.00308 -160.84583,208.09444 -13.23727,17.14011 -27.1206,33.78439 -40.07843,51.12592 -1.91998,2.56968 -1.75488,8.7518 0.0659,11.56598 2.5755,3.97968 7.41639,8.54259 11.61147,8.88257 4.733,0.3819 10.73872,-2.60888 14.54957,-5.98311 6.23965,-5.52591 7.64029,-7.23939 16.46436,-19.04543 8.82408,-11.80604 14.36462,-20.64763 40.43773,-45.35657 26.07312,-24.70896 73.0197,-61.5633 114.5478,-81.09151 25.02611,-11.66892 50.62549,-20.88026 78.52633,-22.10863 8.86754,-0.39121 17.74832,-0.52247 26.61586,-0.93464 5.80418,-0.27012 11.67492,-0.73945 15.17723,-6.44929 7.47267,-12.19056 14.93848,-24.38556 22.31102,-36.63547 16.45897,-27.3443 32.88067,-54.71006 49.24296,-82.11257 1.56836,-2.6244 3.24844,-3.58356 6.11502,-2.14445 14.71946,7.39233 31.25777,9.12228 46.76649,9.48065 15.50873,0.35837 36.82168,-1.05223 51.53299,-13.69452 8.71617,-7.49014 18.76135,-17.01458 24.30857,-26.4027 5.54723,-9.38812 6.34391,-14.24642 6.53965,-22.39531 0.19795,-12.40561 -3.42987,-34.8048 -10.36784,-51.58454 -6.93798,-16.77974 -16.42088,-32.96074 -27.41448,-47.62548 -10.99244,-14.66357 -23.71643,-28.17924 -37.67779,-41.25207 L 635.89331,86.599255 C 618.6933,71.993329 598.89266,61.206877 579.42562,53.347625 553.54838,43.013467 527.32594,37.504139 500.70826,37.615524 Z m -5.10986,45.122339 c 1.24464,0.0133 2.49242,0.04954 3.74087,0.109156 2.4969,0.119117 5.00222,0.329342 7.50902,0.625373 0.1269,0.01498 0.25295,0.03651 0.37977,0.0523 13.26839,1.627223 25.09082,6.234886 39.05054,11.954851 2.51091,1.027374 4.54461,1.909926 6.51524,2.799395 4.43981,1.845302 8.78158,3.962292 12.85084,6.433382 h 0.002 c 0.007,0.003 0.0136,0.008 0.0205,0.0116 11.97595,6.36567 23.14835,14.2719 33.98615,22.39972 3.32617,2.49407 6.53681,5.10351 9.64211,7.81602 h 0.002 c 1.03478,0.90393 2.05847,1.82038 3.07001,2.74708 4.04792,3.70832 7.91211,7.5959 11.61374,11.63875 1.85081,2.02143 3.66077,4.08034 5.43279,6.17641 v 0.002 c 5.3155,6.28782 10.28942,12.89851 14.98847,19.7504 8.73713,12.74243 15.85572,24.90529 20.04148,41.46789 4.36708,16.85706 4.54535,21.53018 4.42082,32.31016 v 0.002 c -1.9e-4,0.0168 -0.002,0.0333 -0.002,0.0501 -0.0168,1.36253 -0.0679,2.71224 -0.15691,4.04786 l -0.007,0.10468 v 0.002 c -0.003,0.0572 -0.009,0.11352 -0.0136,0.17056 -0.27716,3.92443 -0.87784,7.72396 -1.83064,11.36358 -0.0423,0.16155 -0.0791,0.32575 -0.12279,0.48666 v 0.002 c -0.17361,0.63921 -0.35885,1.27225 -0.55488,1.90114 -0.19643,0.63028 -0.40376,1.25433 -0.6231,1.87383 -0.37333,1.05434 -0.78674,2.08946 -1.228,3.11095 -0.0767,0.1776 -0.14861,0.35784 -0.22741,0.53441 v 0.002 c -0.26579,0.59542 -0.54253,1.1835 -0.83232,1.76696 -0.29049,0.585 -0.59233,1.16259 -0.90735,1.73513 -0.50677,0.92101 -1.05438,1.82102 -1.62598,2.70843 -0.13796,0.2142 -0.26979,0.43139 -0.4116,0.64356 -0.72958,1.0918 -1.50926,2.15647 -2.3423,3.19282 -0.41633,0.51791 -0.84438,1.02699 -1.28714,1.53045 -0.44342,0.5043 -0.89866,1.00016 -1.36899,1.48953 -0.46959,0.48859 -0.95178,0.96846 -1.44859,1.44177 l -0.002,0.002 c -0.99287,0.94588 -2.04106,1.8602 -3.14505,2.74255 -0.55326,0.44219 -1.11923,0.87517 -1.70102,1.30078 -2.90438,2.12483 -6.16583,4.04064 -9.81039,5.72158 -1.45782,0.67238 -2.97773,1.30781 -4.55953,1.90342 -0.7909,0.29779 -1.59713,0.58617 -2.41963,0.86415 -0.72276,0.24429 -1.44824,0.47335 -2.17629,0.68904 -2.03631,0.6033 -4.09393,1.09108 -6.16504,1.48953 -0.89087,0.17139 -1.78284,0.3313 -2.67887,0.46845 -2.178,0.33341 -4.37159,0.56737 -6.57209,0.72089 -0.12193,0.008 -0.24416,0.0148 -0.36613,0.0227 -4.45086,0.29211 -8.93458,0.25603 -13.40572,0.0159 h -0.002 c -1.51242,-0.0813 -3.02228,-0.18485 -4.52998,-0.30701 -2.41945,-0.19618 -4.83207,-0.46834 -7.25659,-0.79137 -1.21225,-0.16152 -2.42758,-0.33696 -3.64762,-0.52077 -6.10024,-0.91904 -12.32626,-2.07569 -18.94766,-3.08138 2.03974,-3.23516 3.8444,-6.16999 5.56923,-8.92804 0.33425,-0.53448 0.65754,-1.03561 0.98695,-1.55775 1.36982,-2.17131 2.71538,-4.26947 4.10245,-6.30831 l 0.002,-0.002 c 0.25291,-0.37151 0.51512,-0.70066 0.78912,-0.99151 l 0.002,-0.002 c 0.5487,-0.58192 1.14277,-1.00744 1.78743,-1.30532 l 0.002,-0.002 c 1.61433,-0.74484 3.5513,-0.68121 5.93308,-0.22058 1.03138,0.19961 2.06213,0.38528 3.09048,0.55715 2.05656,0.34376 4.10626,0.62922 6.14684,0.84141 2.04067,0.21215 4.07058,0.35175 6.09,0.40479 h 0.002 c 2.01935,0.0531 4.02659,0.0199 6.01949,-0.11376 1.99293,-0.13362 3.9696,-0.36853 5.93081,-0.71633 1.96123,-0.34777 3.90641,-0.80904 5.83074,-1.39856 4.81071,-1.47378 9.49702,-3.74587 14.01972,-7.03147 0.39782,-0.28908 0.77573,-0.58754 1.15296,-0.88688 0.11224,-0.0891 0.23292,-0.17387 0.34339,-0.2638 l 0.002,-0.002 c 0.0659,-0.0537 0.1258,-0.1098 0.19102,-0.16374 0.88793,-0.73491 1.72393,-1.49675 2.49694,-2.28999 0.83047,-0.85222 1.59667,-1.73874 2.30137,-2.65613 0.353,-0.45954 0.68919,-0.92538 1.01197,-1.40084 0.52833,-0.77826 1.00714,-1.58375 1.45769,-2.4037 0.0984,-0.17909 0.20537,-0.35334 0.30018,-0.53442 v -0.002 c 0.26438,-0.5049 0.51569,-1.01737 0.75273,-1.53727 v -0.002 c 0.0706,-0.15481 0.13193,-0.31462 0.20011,-0.47074 0.3901,-0.89326 0.74936,-1.80254 1.06427,-2.73799 0.18507,-0.54976 0.3582,-1.1075 0.51848,-1.67146 0.16054,-0.56465 0.30916,-1.13605 0.44573,-1.71466 0.0239,-0.10118 0.0427,-0.20536 0.0659,-0.307 0.35822,-1.57103 0.63356,-3.1908 0.83004,-4.85971 0.008,-0.0717 0.0191,-0.14182 0.0273,-0.21376 v -0.002 c 0.0824,-0.72601 0.15339,-1.4486 0.21149,-2.1672 v -0.002 c 0.0581,-0.71858 0.10432,-1.43314 0.13872,-2.14447 v -0.002 c 0.0343,-0.71131 0.0569,-1.41977 0.0682,-2.12399 v -0.002 c 0.0116,-0.70421 0.0116,-1.40396 0,-2.10124 v -0.002 c -0.0224,-1.39525 -0.0894,-2.77715 -0.19785,-4.14564 v -0.002 c -0.0541,-0.68388 -0.11862,-1.36469 -0.1933,-2.04212 v -0.002 c -0.0747,-0.67818 -0.15999,-1.35204 -0.2547,-2.02393 -0.0948,-0.67262 -0.19969,-1.34154 -0.31382,-2.00802 -0.34187,-1.99647 -0.76969,-3.96609 -1.27348,-5.91033 -0.33617,-1.29734 -0.70561,-2.58343 -1.10748,-3.85912 -0.40138,-1.27431 -0.83439,-2.5369 -1.29623,-3.79089 v -0.002 c -0.46211,-1.25466 -0.95382,-2.49845 -1.47133,-3.73406 -0.5178,-1.23625 -1.06009,-2.46321 -1.62824,-3.68174 -3.40684,-7.3065 -7.67496,-14.30351 -12.24821,-21.13304 -1.00452,-1.50024 -2.0289,-2.99091 -3.07456,-4.47084 v -0.002 c -2.09098,-2.95934 -4.26377,-5.87565 -6.50842,-8.7393 v -0.002 c -2.24469,-2.86365 -4.56332,-5.67456 -6.94733,-8.42319 -3.57657,-4.12362 -7.30238,-8.10578 -11.15209,-11.91619 -6.83783,-6.7687 -13.99206,-13.08783 -21.50372,-18.86352 h -0.002 c -1.50195,-1.15482 -3.01733,-2.28886 -4.54815,-3.39975 h -0.002 c -1.53083,-1.11085 -3.0765,-2.20008 -4.63685,-3.26559 h -0.002 c -6.24349,-4.26332 -12.72418,-8.15831 -19.46614,-11.63874 -6.74135,-3.48012 -13.74285,-6.54644 -21.02389,-9.15319 h -0.002 c -1.82044,-0.65172 -3.65886,-1.27343 -5.51464,-1.86701 -4.6712,-1.49391 -9.37458,-2.81366 -14.12206,-3.81819 h -0.002 c -3.16548,-0.66973 -6.34955,-1.20016 -9.55797,-1.550928 -1.6042,-0.175384 -3.21385,-0.306155 -4.83015,-0.386594 -0.80814,-0.04022 -1.61739,-0.06729 -2.42871,-0.08186 -1.59631,-0.02869 -3.20039,-0.005 -4.80969,0.07277 -0.0773,0.0037 -0.15463,0.0097 -0.23196,0.01365 -0.76752,0.03966 -1.53528,0.08905 -2.30592,0.154638 -4.98115,0.423888 -9.71439,1.296224 -14.05838,2.781194 -2.9482,1.00782 -5.70376,2.31867 -8.25037,3.94326 -1.20475,0.76857 -2.37432,1.59147 -3.47479,2.51513 l -0.002,0.002 c -0.0585,0.049 -0.11236,0.10514 -0.17055,0.15463 -0.62321,0.53083 -1.23237,1.08054 -1.81927,1.66463 -0.32103,0.31953 -0.63626,0.64646 -0.94601,0.98241 l -0.002,0.002 c -0.30902,0.33518 -0.61211,0.6783 -0.90964,1.03015 -0.59718,0.7061 -1.17,1.44433 -1.7192,2.2195 -0.27432,0.38714 -0.54085,0.78221 -0.80276,1.18708 -0.10025,0.15499 -0.19492,0.31767 -0.29335,0.47528 -0.15877,0.25426 -0.32137,0.5052 -0.47528,0.76637 v 0.002 c -0.2489,0.42241 -0.49173,0.85323 -0.72771,1.29395 -0.23664,0.44189 -0.46568,0.89242 -0.68905,1.35308 -0.22307,0.46004 -0.43854,0.92856 -0.64811,1.40766 -0.12291,0.28092 -0.23884,0.57204 -0.35703,0.8596 -0.0835,0.20303 -0.17137,0.40081 -0.25243,0.60718 v 0.002 c -0.0682,0.17369 -0.12329,0.34903 -0.18875,0.52303 -0.67376,1.79111 -1.21512,3.59648 -1.61687,5.4146 -0.14697,0.66512 -0.27738,1.33092 -0.39114,1.99891 v 0.002 c -0.11364,0.66726 -0.21118,1.33604 -0.29336,2.00574 v 0.002 c -0.007,0.0606 -0.0105,0.12137 -0.0182,0.18193 -0.14748,1.24448 -0.24308,2.4923 -0.29108,3.74314 -10e-4,0.0356 -0.006,0.0711 -0.007,0.10689 v 0.002 c -0.0243,0.67339 -0.0361,1.34701 -0.0341,2.02166 v 0.002 c 0.002,0.67465 0.0166,1.35071 0.0432,2.0262 v 0.002 c 0.0532,1.35175 0.15429,2.70422 0.29563,4.05696 v 0.002 c 0.35358,3.38294 0.96175,6.76568 1.71693,10.11966 0.36065,1.6027 0.78026,3.19098 1.24392,4.79377 v 0.002 c 0.9272,3.20492 2.03109,6.46257 3.19509,9.98322 v 0.002 c 0.58192,1.7601 1.18097,3.58547 1.77834,5.50329 l -0.002,0.002 c -3.79395,4.08149 -8.44131,9.08476 -13.6786,14.71785 l -0.002,0.002 c -3.52384,-6.12729 -6.79645,-12.07795 -9.47382,-18.19039 -0.33496,-0.76469 -0.65998,-1.53089 -0.97558,-2.30137 -0.6304,-1.53898 -1.22193,-3.09187 -1.76696,-4.66187 -0.54526,-1.57066 -1.04509,-3.15869 -1.49408,-4.77102 -0.44917,-1.61304 -0.84737,-3.24887 -1.18934,-4.9143 -0.17076,-0.83162 -0.32873,-1.67073 -0.47073,-2.51741 -0.11108,-0.66293 -0.20984,-1.32545 -0.29791,-1.98527 -0.17624,-1.32034 -0.30618,-2.6336 -0.39342,-3.94098 -0.0871,-1.30587 -0.13147,-2.60544 -0.13416,-3.89778 -10e-4,-0.6473 0.008,-1.29144 0.0272,-1.93525 0.019,-0.64229 0.0477,-1.28285 0.0864,-1.92159 v -0.002 c 0.0388,-0.63949 0.0876,-1.27666 0.14554,-1.91251 0.21412,-2.34963 0.5712,-4.67006 1.03016,-6.96778 0.0378,-0.1894 0.0629,-0.38176 0.10235,-0.5708 v -0.002 c 0.25856,-1.24048 0.54995,-2.47326 0.87324,-3.69766 v -0.002 c 0.0941,-0.35644 0.20991,-0.70697 0.30927,-1.062 0.24199,-0.86452 0.48073,-1.72954 0.75273,-2.58564 l 0.002,-0.002 c 0.22537,-0.70968 0.46689,-1.40812 0.72771,-2.09443 l 0.002,-0.002 c 0.26122,-0.68719 0.5391,-1.36182 0.83459,-2.02621 0.2958,-0.665 0.60808,-1.31746 0.93692,-1.96026 0.32818,-0.64164 0.67258,-1.27189 1.03244,-1.89204 v -0.002 c 0.35988,-0.62015 0.73765,-1.22907 1.12794,-1.82837 v -0.002 c 0.2681,-0.41163 0.55265,-0.81232 0.83459,-1.21436 0.12898,-0.18392 0.25022,-0.37294 0.38204,-0.55488 0.41985,-0.57956 0.85302,-1.1479 1.30078,-1.70784 0.89583,-1.12027 1.84501,-2.20186 2.84488,-3.24738 0.49975,-0.52259 1.01116,-1.03469 1.53501,-1.53956 0.76621,-0.73847 1.56656,-1.45132 2.38096,-2.15355 2.52657,-2.178607 5.26595,-4.193923 8.1776,-6.062698 1.11478,-0.715394 2.23542,-1.397975 3.36564,-2.048947 1.1293,-0.650444 2.26504,-1.268134 3.40884,-1.855651 7.03333,-3.612952 14.33317,-6.038375 21.79482,-7.45899 2.24684,-0.427836 4.50556,-0.772997 6.77903,-1.021063 2.397,-0.261547 4.80921,-0.421728 7.2293,-0.493476 1.29822,-0.03842 2.59896,-0.05486 3.90233,-0.04094 z m 4.13884,33.779217 c 12.14744,0.17692 23.86175,3.21928 35.01859,8.74612 28.50745,14.11983 54.37186,31.95692 73.45057,58.0414 12.25458,16.75588 22.81861,34.18892 21.58559,56.39269 -0.59963,10.78868 -5.76542,18.01583 -14.37447,23.23203 -11.54666,6.99995 -26.47653,3.60007 -35.37867,2.64797 l -100.69104,157.9932 c -2.34146,3.62922 -6.8765,7.23573 -10.96562,8.07754 -10.61753,2.18312 -18.07874,0.82162 -30.01335,1.85565 -13.42545,1.1632 -28.869,4.02019 -41.51122,8.10912 l -11.02133,4.33228 c 0,0 124.16561,-179.11024 180.67027,-259.56819 8.37619,-11.93089 8.3942,-11.96268 -2.64248,-21.86531 -19.46061,-17.45913 -42.11113,-26.52253 -68.42031,-25.55614 -2.20991,0.0815 -4.82003,1.21112 -6.46522,2.70845 -7.98382,7.26891 -15.70351,14.83027 -24.20079,22.93866 -1.01995,-3.99831 -2.18976,-7.20655 -2.58563,-10.50626 -0.43662,-3.63504 -0.37104,-7.36735 -0.16146,-11.03612 0.66833,-11.73295 11.01287,-23.15438 22.09725,-25.20593 4.44106,-0.82172 8.83436,-1.2613 13.17377,-1.33489 0.81363,-0.0137 1.62571,-0.014 2.43555,-0.002 z"
       id="path4210"
       inkscape:connector-curvature="0"
       sodipodi:nodetypes="scccccccccccccccccccscccccccssccccccczszczccccsccscccccccccsscccccccccccccccccccccccccsccscscccsscccccsscsscccccccscccccscccccssscccccsscccccccccccccccccccssccccccccccscccccccscccccssscccsscccccccccccccccccccscccccccccccccccccccccccssssscscccccccccccccccccccccccccssscsccscscccccccccsccccccccccccc" /></g></svg>